<svg width="19" height="15" viewBox="0 0 19 15" fill="none" xmlns="http://www.w3.org/2000/svg">
<path d="M18.5 1.98123C17.8229 2.27654 17.1068 2.4728 16.3737 2.56398C17.1463 2.10568 17.7238 1.37999 17.9971 0.524351C17.2738 0.953354 16.4824 1.25546 15.6571 1.4176C15.1511 0.877352 14.4944 0.501759 13.7722 0.339619C13.05 0.177479 12.2957 0.236287 11.6073 0.508403C10.919 0.780518 10.3284 1.25336 9.91223 1.8655C9.4961 2.47764 9.27368 3.20079 9.27387 3.94098C9.27387 4.23348 9.29862 4.51473 9.35938 4.78248C7.89134 4.7105 6.45503 4.32949 5.14434 3.66436C3.83365 2.99922 2.67811 2.06494 1.75325 0.922601C1.27942 1.73469 1.13294 2.69685 1.34362 3.61315C1.5543 4.52946 2.10631 5.33101 2.88725 5.8546C2.3031 5.83894 1.73128 5.68306 1.22 5.4001V5.4406C1.22098 6.29271 1.5155 7.11847 2.05398 7.77887C2.59247 8.43927 3.34203 8.89399 4.1765 9.06648C3.86081 9.14967 3.53546 9.19053 3.209 9.18798C2.97454 9.19214 2.74031 9.17102 2.51037 9.12498C2.74881 9.85738 3.20843 10.4979 3.82594 10.9582C4.44346 11.4186 5.18851 11.6762 5.9585 11.6956C4.65231 12.7171 3.04135 13.2713 1.38313 13.2695C1.0805 13.2695 0.79025 13.256 0.5 13.2189C2.18737 14.3062 4.15364 14.8814 6.161 14.8749C12.9515 14.8749 16.664 9.24985 16.664 4.3741C16.664 4.21098 16.6584 4.05348 16.6505 3.8971C17.3783 3.37621 18.0051 2.72697 18.5 1.98123V1.98123Z" fill="#F7F7F7"/>
</svg>
