<svg width="233" height="37" viewBox="0 0 233 37" fill="none" xmlns="http://www.w3.org/2000/svg">
<path d="M9.39954 18H8V19.322H9.39954V18Z" fill="url(#paint0_linear_603_747)"/>
<path d="M12.1986 18H10.7991V19.322H12.1986V18Z" fill="url(#paint1_linear_603_747)"/>
<path d="M14.9977 18H13.5981V19.322H14.9977V18Z" fill="url(#paint2_linear_603_747)"/>
<path d="M17.7968 18H16.3972V19.322H17.7968V18Z" fill="url(#paint3_linear_603_747)"/>
<path d="M20.5958 18H19.1963V19.322H20.5958V18Z" fill="url(#paint4_linear_603_747)"/>
<path d="M23.3949 18H21.9954V19.322H23.3949V18Z" fill="url(#paint5_linear_603_747)"/>
<path d="M26.194 18H24.7944V19.322H26.194V18Z" fill="url(#paint6_linear_603_747)"/>
<path d="M28.993 18H27.5935V19.322H28.993V18Z" fill="url(#paint7_linear_603_747)"/>
<path d="M31.7921 18H30.3926V19.322H31.7921V18Z" fill="url(#paint8_linear_603_747)"/>
<path d="M15.3995 27H14V28.322H15.3995V27Z" fill="url(#paint9_linear_603_747)"/>
<path d="M34.5912 18H33.1917V19.322H34.5912V18Z" fill="url(#paint10_linear_603_747)"/>
<path d="M44.8972 5.99715V36.0322H51.3463V17.0382L58.7358 29.7714H63.4831L70.8726 17.0382V36.0322H77.3217V5.99715H71.2757L61.199 23.3414L51.1671 5.99715H44.8972ZM81.8233 24.822C81.8233 31.5904 86.7945 36.6668 93.9153 36.6668C98.3491 36.6668 102.962 34.5939 104.664 30.5752L99.0656 28.883C97.9012 30.6598 96.1994 31.675 93.9601 31.675C90.5564 31.675 88.6755 29.3061 88.1828 26.3449H105.156V24.8643C105.156 18.0958 100.812 13.0617 93.6018 13.0617C86.5258 13.0617 81.8233 18.4765 81.8233 24.822ZM93.6018 17.6305C96.6024 17.6305 98.3043 19.7456 98.7074 22.3684H88.2724C88.8098 19.7456 90.6012 17.6305 93.6018 17.6305ZM107.084 13.6963V18.4765H111.114V28.883C111.114 33.7056 114.025 36.6668 119.041 36.6668C121.012 36.6668 123.027 36.2014 124.729 35.1862L123.609 30.7444C122.534 31.1674 121.46 31.5058 120.295 31.5058C118.101 31.5058 117.384 30.0252 117.384 28.1639V18.4765H123.833V13.6963H117.384V6.08175H111.114V13.6963H107.084ZM135.548 36.6668C138.235 36.6668 141.101 35.6515 142.535 33.4094L142.714 36.0322H148.312V22.4953C148.312 16.6575 143.968 13.0617 138.056 13.0617C133.712 13.0617 129.009 15.2615 127.979 19.5341L133.578 20.5917C134.249 18.8149 136.041 17.9266 137.966 17.9266C140.698 17.9266 142.221 19.7033 142.221 22.1992V23.5106C140.385 22.876 138.817 22.5376 136.847 22.5376C132.144 22.5376 127.128 24.695 127.128 29.6868C127.128 34.1286 131.249 36.6668 135.548 36.6668ZM133.309 29.3907C133.309 27.1486 135.951 26.5141 137.877 26.5141C138.638 26.5141 139.355 26.5987 140.116 26.7256C140.878 26.8948 141.549 27.1063 142.221 27.3601V27.5716C142.221 30.3213 139.803 32.0981 137.071 32.0981C135.324 32.0981 133.309 31.2943 133.309 29.3907ZM153.308 4.47424V36.0322H159.086L159.265 33.1133C160.922 35.4823 163.609 36.6668 166.565 36.6668C173.506 36.6668 177.806 30.7867 177.806 24.7373C177.806 18.688 173.641 13.0617 166.923 13.0617C163.967 13.0617 161.37 14.2885 159.578 16.5306V4.47424H153.308ZM165.445 18.3919C169.252 18.3919 171.401 21.5646 171.401 24.8643C171.401 28.2062 169.162 31.3366 165.445 31.3366C161.683 31.3366 159.489 28.1216 159.489 24.8643C159.489 21.5223 161.728 18.3919 165.445 18.3919ZM181.911 13.6963V36.0322H188.181V23.2144C188.181 20.4647 190.107 18.3919 193.018 18.3919C196.108 18.3919 197.228 20.8032 197.228 23.3836V36.0322H203.498V22.6222C203.498 17.4189 200.676 13.0617 194.854 13.0617C191.988 13.0617 189.346 14.2039 187.868 16.5729L187.689 13.6963H181.911ZM208.503 4.47424V36.0322H214.28L214.459 33.1133C216.116 35.4823 218.803 36.6668 221.759 36.6668C228.701 36.6668 233 30.7867 233 24.7373C233 18.688 228.835 13.0617 222.117 13.0617C219.161 13.0617 216.564 14.2885 214.772 16.5306V4.47424H208.503ZM220.639 18.3919C224.446 18.3919 226.596 21.5646 226.596 24.8643C226.596 28.2062 224.356 31.3366 220.639 31.3366C216.877 31.3366 214.683 28.1216 214.683 24.8643C214.683 21.5223 216.922 18.3919 220.639 18.3919Z" fill="url(#paint11_linear_603_747)"/>
<path d="M39.1871 35.0486V33.0657C39.1871 32.6691 38.9072 32.4047 38.4873 32.4047H37.0878V16.5411H39.1871C39.6069 16.5411 39.8868 16.2767 39.8868 15.8801V13.4345C39.8868 13.2362 39.8169 13.0379 39.6069 12.9057L34.2887 9.20419V1.33849C34.2887 0.9419 34.0088 0.677507 33.5889 0.677507H27.9908C27.5709 0.677507 27.291 0.9419 27.291 1.33849V4.24682L21.4129 0.148721C21.133 -0.0495737 20.8531 -0.0495737 20.5732 0.148721L2.86905 12.5752H2.79908V12.6413L2.37922 12.9057C2.16929 13.0379 2.09931 13.2362 2.09931 13.4345V15.8801C2.09931 16.2767 2.37921 16.5411 2.79908 16.5411H4.89838V32.4047H3.49885C3.07898 32.4047 2.79908 32.6691 2.79908 33.0657V35.0486H0V36.3706H3.49885H38.4873H41.9861V35.0486H39.1871ZM32.8891 1.99947V2.66046H28.6905V1.99947H32.8891ZM28.6905 3.98242H32.8891V8.21272L28.6905 5.23829V3.98242ZM3.49885 13.8972H31.4896V12.5752H5.17829L20.9931 1.47135L38.4873 13.7656V15.2198H36.388H5.59815H3.49885V13.8972ZM6.29792 16.5411H35.6882V32.4047H18.194V23.1509H19.5935V21.829H17.4942H9.79677H7.69746V23.1509H9.097V32.4047H6.29792V16.5411ZM10.4965 23.1509H16.7945V32.4047H10.4965V23.1509ZM4.19861 35.0486V33.7267H5.59815H9.79677H17.4942H36.388H37.7875V35.0486H4.19861Z" fill="url(#paint12_linear_603_747)"/>
<path d="M22 22.661V30.5928C22 30.9894 22.2799 31.2538 22.6998 31.2538H32.4965C32.9164 31.2538 33.1963 30.9894 33.1963 30.5928V22.661C33.1963 22.2644 32.9164 22 32.4965 22H22.6998C22.2799 22 22 22.2651 22 22.661ZM23.3995 27.2879H26.8984V29.9318H23.3995V27.2879ZM28.2979 29.9318V27.2879H31.7968V29.9318H28.2979ZM31.7968 25.9659H28.2979V23.322H31.7968V25.9659ZM26.8984 23.322V25.9659H23.3995V23.322H26.8984Z" fill="url(#paint13_linear_603_747)"/>
<defs>
<linearGradient id="paint0_linear_603_747" x1="8.2581" y1="18.141" x2="9.11784" y2="18.1644" gradientUnits="userSpaceOnUse">
<stop stop-color="#DC3E88"/>
<stop offset="0.418735" stop-color="#B840AE"/>
<stop offset="1" stop-color="#843FE8"/>
</linearGradient>
<linearGradient id="paint1_linear_603_747" x1="11.0572" y1="18.141" x2="11.9169" y2="18.1644" gradientUnits="userSpaceOnUse">
<stop stop-color="#DC3E88"/>
<stop offset="0.418735" stop-color="#B840AE"/>
<stop offset="1" stop-color="#843FE8"/>
</linearGradient>
<linearGradient id="paint2_linear_603_747" x1="13.8562" y1="18.141" x2="14.716" y2="18.1644" gradientUnits="userSpaceOnUse">
<stop stop-color="#DC3E88"/>
<stop offset="0.418735" stop-color="#B840AE"/>
<stop offset="1" stop-color="#843FE8"/>
</linearGradient>
<linearGradient id="paint3_linear_603_747" x1="16.6553" y1="18.141" x2="17.5151" y2="18.1644" gradientUnits="userSpaceOnUse">
<stop stop-color="#DC3E88"/>
<stop offset="0.418735" stop-color="#B840AE"/>
<stop offset="1" stop-color="#843FE8"/>
</linearGradient>
<linearGradient id="paint4_linear_603_747" x1="19.4544" y1="18.141" x2="20.3141" y2="18.1644" gradientUnits="userSpaceOnUse">
<stop stop-color="#DC3E88"/>
<stop offset="0.418735" stop-color="#B840AE"/>
<stop offset="1" stop-color="#843FE8"/>
</linearGradient>
<linearGradient id="paint5_linear_603_747" x1="22.2535" y1="18.141" x2="23.1132" y2="18.1644" gradientUnits="userSpaceOnUse">
<stop stop-color="#DC3E88"/>
<stop offset="0.418735" stop-color="#B840AE"/>
<stop offset="1" stop-color="#843FE8"/>
</linearGradient>
<linearGradient id="paint6_linear_603_747" x1="25.0525" y1="18.141" x2="25.9123" y2="18.1644" gradientUnits="userSpaceOnUse">
<stop stop-color="#DC3E88"/>
<stop offset="0.418735" stop-color="#B840AE"/>
<stop offset="1" stop-color="#843FE8"/>
</linearGradient>
<linearGradient id="paint7_linear_603_747" x1="27.8516" y1="18.141" x2="28.7113" y2="18.1644" gradientUnits="userSpaceOnUse">
<stop stop-color="#DC3E88"/>
<stop offset="0.418735" stop-color="#B840AE"/>
<stop offset="1" stop-color="#843FE8"/>
</linearGradient>
<linearGradient id="paint8_linear_603_747" x1="30.6507" y1="18.141" x2="31.5104" y2="18.1644" gradientUnits="userSpaceOnUse">
<stop stop-color="#DC3E88"/>
<stop offset="0.418735" stop-color="#B840AE"/>
<stop offset="1" stop-color="#843FE8"/>
</linearGradient>
<linearGradient id="paint9_linear_603_747" x1="14.2581" y1="27.141" x2="15.1178" y2="27.1644" gradientUnits="userSpaceOnUse">
<stop stop-color="#DC3E88"/>
<stop offset="0.418735" stop-color="#B840AE"/>
<stop offset="1" stop-color="#843FE8"/>
</linearGradient>
<linearGradient id="paint10_linear_603_747" x1="33.4498" y1="18.141" x2="34.3095" y2="18.1644" gradientUnits="userSpaceOnUse">
<stop stop-color="#DC3E88"/>
<stop offset="0.418735" stop-color="#B840AE"/>
<stop offset="1" stop-color="#843FE8"/>
</linearGradient>
<linearGradient id="paint11_linear_603_747" x1="79.587" y1="7.90813" x2="192.672" y2="24.8994" gradientUnits="userSpaceOnUse">
<stop stop-color="#DC3E88"/>
<stop offset="0.418735" stop-color="#B840AE"/>
<stop offset="1" stop-color="#843FE8"/>
</linearGradient>
<linearGradient id="paint12_linear_603_747" x1="7.74304" y1="3.87955" x2="33.5317" y2="4.64508" gradientUnits="userSpaceOnUse">
<stop stop-color="#DC3E88"/>
<stop offset="0.418735" stop-color="#B840AE"/>
<stop offset="1" stop-color="#843FE8"/>
</linearGradient>
<linearGradient id="paint13_linear_603_747" x1="24.0648" y1="22.9871" x2="30.9412" y2="23.201" gradientUnits="userSpaceOnUse">
<stop stop-color="#DC3E88"/>
<stop offset="0.418735" stop-color="#B840AE"/>
<stop offset="1" stop-color="#843FE8"/>
</linearGradient>
</defs>
</svg>
